DataType=double
version=3
OpenSimVersion=4.5-2024-01-10-34fd6af
endheader
time	ground_force_2_vx	ground_force_2_vy	ground_force_2_vz	ground_moment_2_mx	ground_moment_2_my	ground_moment_2_mz	ground_force_2_px	ground_force_2_py	ground_force_2_pz	ground_force_1_vx	ground_force_1_vy	ground_force_1_vz	ground_moment_1_mx	ground_moment_1_my	ground_moment_1_mz	ground_force_1_px	ground_force_1_py	ground_force_1_pz
3.02	-0.6925989543311886	-4.249444129755773	-0.2381757265136635	-0.1424217980257882	0.03784290479677006	-0.07694557859707551	0.673320262977984	0.05368940578400443	0.55584845770794	-54.07868320463459	649.5739353243612	49.89479616460661	3.218120913984897	-0.2042997331399648	12.93659202153759	0.8319485724089123	0.05368940578400443	0.3949160462092999
3.025	-0.4309586850579477	-3.437466395072818	-0.2386901217581006	-0.1138200287725359	0.02873689080756046	-0.0434177142383122	0.6842790910495381	0.05368940578400443	0.5561627531582212	-52.09551487305554	644.6842918376633	48.5582466149917	3.207229903095713	-0.4792469438455744	14.4670143129568	0.8261444653266744	0.05368940578400443	0.394737356544501
3.03	-0.2081201990899206	-2.711127311253847	-0.2326768334541605	-0.08819960091026235	0.02068217307325619	-0.01489226198514171	0.6953946066056246	0.05368940578400443	0.5565217225411436	-50.03949260328365	640.4009391377394	47.26159780168933	3.177268615525632	-0.7305647819334136	15.84178882993268	0.8203483036737262	0.05368940578400443	0.3945655688470726
3.035	-0.02239760799484181	-2.071409394572754	-0.2215914246016162	-0.06562082974490835	0.01368475813935165	0.008861479651106619	0.7066567881436623	0.05368940578400443	0.5569265850387147	-47.91612860662617	636.7090280215302	46.01304491198675	3.129748793145441	-0.9583053482412442	17.07019056533837	0.8145593946125901	0.05368940578400443	0.3944005690719884
3.04	0.1285469119820766	-1.51688162019019	-0.2067404998939999	-0.04605300372644816	0.007721365893088097	0.02815092699167687	0.7180559758267587	0.05368940578400443	0.5573784782350892	-45.73188325048896	633.5868994575245	44.81941049858199	3.066134584105798	-1.162839580688455	18.16263168458043	0.8087771022503963	0.05368940578400443	0.3942421218606762
3.045	0.2475169513369888	-1.044209002957416	-0.1892752272093965	-0.02939296810912406	0.002745670227488908	0.04333785258295064	0.7295827011999831	0.05368940578400443	0.5578783725342777	-43.49369654512952	631.007577078957	43.68613054873708	2.987803128370383	-1.344789450385235	19.13030244361893	0.8030008549278634	0.05368940578400443	0.3940898865573083
3.05	0.3376182323270029	-0.6486139903335584	-0.170190383985183	-0.01548204764647743	-0.001306016629051721	0.05481885631751682	0.7412274954119729	0.05368940578400443	0.5584269846806307	-41.20853172946114	628.9402704462949	42.61728622007958	2.896013397909021	-1.504969440209769	19.98483649254532	0.7972301473008153	0.05368940578400443	0.3939434345675955
3.055	0.402117836148733	-0.3242866045802657	-0.1503278971733408	-0.004121171644254851	-0.004509669537623974	0.06300863886352059	0.7529806811318115	0.05368940578400443	0.5590246934022207	-38.88295267337237	627.3517722674235	41.61568061453492	2.791882138371408	-1.644339379129825	20.73801213445216	0.791464538060087	0.05368940578400443	0.3938022673637519
3.06	0.4443258943904436	-0.06474217916837688	-0.130383910326362	0.004915861729659632	-0.006949111371754468	0.068325980896076	0.7648321539585885	0.05368940578400443	0.5596714601061979	-36.5227542865871	626.2076697293438	40.68295747461964	2.676366384423378	-1.763968953679056	21.40149621881308	0.7857036441408097	0.05368940578400443	0.393665834439472
3.065	0.4674987717233501	0.1368728573727935	-0.1109184944478159	0.01187098284818777	-0.008712212051923678	0.07118227798166632	0.7767711596075132	0.05368940578400443	0.5603667573765289	-34.13266289245688	625.4733446965066	39.81975739597841	2.550252564924448	-1.865012873175335	21.98663128959151	0.7799471322324559	0.05368940578400443	0.3935335505531013
3.07	0.4747623312782423	0.287525386411744	-0.09236721378250579	0.01699225985474051	-0.009887709539511964	0.07197244138019154	0.7887860735062777	0.05368940578400443	0.5611095077658722	-31.71611985963591	625.1147760370728	39.025905483274	2.414152296785995	-1.948694901105861	22.50426255004012	0.7741947083329491	0.05368940578400443	0.3934048116665255
3.075	0.4690535643865434	0.394087404590266	-0.07505385801745135	0.02052602973843687	-0.0105626219509101	0.07106794796680838	0.8008641896350813	0.05368940578400443	0.5618980350442332	-29.27515651233314	625.099170297344	38.30062183335649	2.268504606730167	-2.016298547792509	22.96459992374724	0.7684461060103073	0.05368940578400443	0.3932790090886469
3.08	0.4530786672497955	0.4631716827385048	-0.05920375377820619	0.02271063116658123	-0.0108202089873958	0.06881180634705042	0.8129915254824991	0.05368940578400443	0.562730029678653	-26.81036219333255	625.3954423075863	37.64274343883041	2.113583784696363	-2.069161907744988	23.37711108996019	0.7627010739593709	0.05368940578400443	0.3931555414602566
3.085	0.4292855430972704	0.5010072136931853	-0.04495716719936738	0.02377159791298844	-0.01073843323414277	0.06551519946141526	0.8251526498594587	0.05368940578400443	0.5636025298832482	-24.32094101225128	625.9745577269746	37.05094364945641	1.949511649377228	-2.108673798518641	23.75044255718577	0.7569593633824326	0.05368940578400443	0.3930338243638208
3.09	0.3998486841316149	0.5133500783899194	-0.03238240300234452	0.02391815861520019	-0.01038886714346633	0.06145556502149507	0.8373305400107918	0.05368940578400443	0.5645119191113396	-21.80484628880561	626.8097435941829	36.52393299019805	1.776272840692049	-2.136268054764496	24.09236675925585	0.7512207156913764	0.05368940578400443	0.3929132974964465
3.095	0.3666644283260165	0.505425234573238	-0.02148829201906111	0.02334088233632414	-0.009835989262663346	0.05687588254871123	0.8495064739880016	0.05368940578400443	0.5654539403760961	-19.2589755209944	627.8765726828187	36.0606227844405	1.593731826681563	-2.153412858125963	24.40975356565788	0.7454848510325305	0.05368940578400443	0.3927934294957517
3.1	0.3313546781860133	0.4818947572929915	-0.01223583724958743	0.02221030887475095	-0.009136813087462343	0.05198494826809374	0.8616599636022837	0.05368940578400443	0.5664237272985141	-16.679405296498	629.1529307765602	35.66023260400732	1.401650527314795	-2.161592817284628	24.70856456682207	0.7397514581774874	0.05368940578400443	0.3926737206461172
